<svg width="206" height="77" viewBox="0 0 206 77" fill="none" xmlns="http://www.w3.org/2000/svg">
<rect width="206" height="77" fill="#C1272D"/>
<path d="M43.5204 42.138L29.0106 11.1922C28.6893 10.5508 28.3146 10.1767 27.5114 10.1767C26.6012 10.1767 25.9587 10.818 25.9587 11.7266V45.0776C25.9587 45.9328 26.5477 46.6276 27.5114 46.6276C28.3681 46.6276 29.0106 45.9328 29.0106 45.0776V17.8196L42.0213 45.6655C42.289 46.2534 42.7173 46.6276 43.5204 46.6276C44.3236 46.6276 44.7519 46.2534 45.0196 45.6655L58.0303 17.8196V45.0776C58.0303 45.9328 58.6728 46.6276 59.5294 46.6276C60.4932 46.6276 61.0822 45.9328 61.0822 45.0776V11.7266C61.0822 10.818 60.4397 10.1767 59.5294 10.1767C58.7263 10.1767 58.3515 10.5508 58.0303 11.1922L43.5204 42.138Z" fill="white"/>
<path d="M89.7647 45.0242V32.4106C89.7647 25.9436 85.8026 22.3626 79.0563 22.3626C75.469 22.3626 72.9526 23.0574 70.8644 24.1264C70.4361 24.3401 70.0613 24.7677 70.0613 25.3022C70.0613 26.1573 70.5967 26.6384 71.4534 26.6384C71.7746 26.6384 72.0423 26.5315 72.203 26.478C74.2911 25.6229 76.2186 25.0884 78.7886 25.0884C84.0357 25.0884 86.5522 27.3866 86.5522 32.4641V35.6175C85.3207 34.1744 82.5365 32.7313 79.0563 32.7313C73.1132 32.7313 69.2046 35.564 69.2046 39.8398C69.2046 43.8483 72.8455 46.8414 78.5744 46.8414C81.8405 46.8414 84.7318 45.8793 86.5522 43.8483V45.0242C86.5522 45.8793 87.1411 46.6276 88.1584 46.6276C89.1757 46.6276 89.7647 45.8793 89.7647 45.0242ZM86.5522 39.8398C86.5522 42.6725 82.9649 44.4897 79.0563 44.4897C75.0942 44.4897 72.4171 42.7259 72.4171 39.8398C72.4171 37.0071 75.0942 35.1364 79.2705 35.1364C82.9113 35.1364 86.5522 36.9002 86.5522 39.8398Z" fill="white"/>
<path d="M116.141 24.0195C116.141 23.2178 115.605 22.5764 114.695 22.5764C113.946 22.5764 113.571 22.9505 113.357 23.485L105.432 42.619L97.3475 23.5919C97.0798 22.9505 96.705 22.5764 95.9555 22.5764C95.0452 22.5764 94.4563 23.2178 94.4563 24.0195C94.4563 24.2867 94.5634 24.5539 94.6705 24.8212L103.773 46.0396C101.631 49.7275 99.4357 51.9188 96.4909 53.9498C95.8484 54.3239 95.5271 54.6981 95.5271 55.286C95.5271 56.0343 96.0625 56.6222 96.9192 56.6222C97.3475 56.6222 97.6153 56.5153 97.883 56.3549C102.648 53.5222 106.021 48.712 108.109 43.7414C110.733 37.5416 115.98 24.7143 115.98 24.7143C116.087 24.447 116.141 24.2332 116.141 24.0195Z" fill="white"/>
<path d="M121.977 23.5384C121.71 22.8971 121.335 22.5764 120.585 22.5764C119.675 22.5764 119.086 23.2178 119.086 24.0195C119.086 24.2867 119.193 24.6074 119.3 24.8212L128.67 45.719C128.938 46.2534 129.259 46.6276 130.008 46.6276C130.758 46.6276 131.079 46.2534 131.347 45.719L140.717 24.8212C140.824 24.6074 140.931 24.2867 140.931 24.0195C140.931 23.2178 140.342 22.5764 139.432 22.5764C138.682 22.5764 138.307 22.8971 138.04 23.5384L130.008 41.657L121.977 23.5384Z" fill="white"/>
<path d="M149.256 45.0242V24.1798C149.256 23.2712 148.559 22.5764 147.649 22.5764C146.739 22.5764 146.043 23.2712 146.043 24.1798V45.0242C146.043 45.9328 146.739 46.6276 147.649 46.6276C148.559 46.6276 149.256 45.9328 149.256 45.0242ZM145.615 15.9489C145.615 17.0713 146.525 17.9799 147.649 17.9799C148.774 17.9799 149.684 17.0713 149.684 15.9489C149.684 14.8266 148.774 13.918 147.649 13.918C146.525 13.918 145.615 14.8266 145.615 15.9489Z" fill="white"/>
<path d="M179.76 33.1055C179.76 26.9056 175.958 22.3626 169.747 22.3626C165.839 22.3626 162.733 24.0195 161.02 26.959V24.1798C161.02 23.2712 160.324 22.5764 159.414 22.5764C158.504 22.5764 157.808 23.2712 157.808 24.1798V45.0242C157.808 45.9328 158.504 46.6276 159.414 46.6276C160.324 46.6276 161.02 45.9328 161.02 45.0242V33.8537C161.02 28.6159 164.5 25.3022 169.051 25.3022C174.031 25.3022 176.547 28.3487 176.547 33.1589V45.0242C176.547 45.9328 177.243 46.6276 178.153 46.6276C179.064 46.6276 179.76 45.9328 179.76 45.0242V33.1055Z" fill="white"/>
<path d="M47.4072 57.4402C47.4072 57.1938 47.2184 57.0053 46.9716 57.0053C46.7248 57.0053 46.536 57.1938 46.536 57.4402V65.8033C46.536 66.0497 46.7248 66.2381 46.9716 66.2381C47.2184 66.2381 47.4072 66.0497 47.4072 65.8033V62.2522C47.959 63.0784 48.8447 63.5857 50.0062 63.5857C51.7777 63.5857 53.1861 62.1942 53.1861 60.2665C53.1861 58.3388 51.7777 56.9474 50.0062 56.9474C48.8447 56.9474 47.959 57.4547 47.4072 58.2808V57.4402ZM52.3149 60.2665C52.3149 61.7739 51.3276 62.8465 49.8756 62.8465C48.38 62.8465 47.4072 61.6725 47.4072 60.2665C47.4072 58.8606 48.38 57.6866 49.8756 57.6866C51.3276 57.6866 52.3149 58.7591 52.3149 60.2665Z" fill="#FFC20E"/>
<path d="M57.9318 56.9474C56.0152 56.9474 54.6939 58.4982 54.6939 60.2665C54.6939 62.0203 55.9426 63.5857 58.0189 63.5857C59.166 63.5857 60.1098 63.0494 60.6034 62.3682C60.6615 62.2812 60.6906 62.2087 60.6906 62.1073C60.6906 61.9189 60.5599 61.7449 60.3276 61.7449C60.1679 61.7449 60.0662 61.8464 59.9936 61.9333C59.4709 62.5566 58.832 62.8465 58.0189 62.8465C56.4943 62.8465 55.6231 61.7159 55.5796 60.5564H60.618C60.8067 60.5564 60.981 60.397 60.981 60.1941C60.981 58.3388 59.7177 56.9474 57.9318 56.9474ZM60.1824 59.8317H55.6086C55.7248 58.6432 56.6541 57.6721 57.9318 57.6721C59.1805 57.6721 60.0662 58.6142 60.1824 59.8317Z" fill="#FFC20E"/>
<path d="M69.1278 60.2665C69.1278 58.4258 67.763 56.9474 65.8173 56.9474C63.8717 56.9474 62.5068 58.4258 62.5068 60.2665C62.5068 62.1073 63.8717 63.5857 65.8173 63.5857C67.763 63.5857 69.1278 62.1073 69.1278 60.2665ZM68.2566 60.2665C68.2566 61.7449 67.1822 62.832 65.8173 62.832C64.4524 62.832 63.378 61.7449 63.378 60.2665C63.378 58.7881 64.4524 57.7011 65.8173 57.7011C67.1822 57.7011 68.2566 58.7881 68.2566 60.2665Z" fill="#FFC20E"/>
<path d="M71.9094 57.4402C71.9094 57.1938 71.7206 57.0053 71.4738 57.0053C71.227 57.0053 71.0382 57.1938 71.0382 57.4402V65.8033C71.0382 66.0497 71.227 66.2381 71.4738 66.2381C71.7206 66.2381 71.9094 66.0497 71.9094 65.8033V62.2522C72.4611 63.0784 73.3469 63.5857 74.5084 63.5857C76.2799 63.5857 77.6883 62.1942 77.6883 60.2665C77.6883 58.3388 76.2799 56.9474 74.5084 56.9474C73.3469 56.9474 72.4611 57.4547 71.9094 58.2808V57.4402ZM76.8171 60.2665C76.8171 61.7739 75.8297 62.8465 74.3778 62.8465C72.8822 62.8465 71.9094 61.6725 71.9094 60.2665C71.9094 58.8606 72.8822 57.6866 74.3778 57.6866C75.8297 57.6866 76.8171 58.7591 76.8171 60.2665Z" fill="#FFC20E"/>
<path d="M80.4738 63.0929V54.0775C80.4738 53.8311 80.2851 53.6427 80.0382 53.6427C79.7914 53.6427 79.6026 53.8311 79.6026 54.0775V63.0929C79.6026 63.3393 79.7914 63.5277 80.0382 63.5277C80.2851 63.5277 80.4738 63.3393 80.4738 63.0929Z" fill="#FFC20E"/>
<path d="M85.6244 56.9474C83.7078 56.9474 82.3865 58.4982 82.3865 60.2665C82.3865 62.0203 83.6352 63.5857 85.7115 63.5857C86.8586 63.5857 87.8024 63.0494 88.296 62.3682C88.3541 62.2812 88.3831 62.2087 88.3831 62.1073C88.3831 61.9189 88.2525 61.7449 88.0202 61.7449C87.8604 61.7449 87.7588 61.8464 87.6862 61.9333C87.1635 62.5566 86.5246 62.8465 85.7115 62.8465C84.1869 62.8465 83.3157 61.7159 83.2722 60.5564H88.3105C88.4993 60.5564 88.6735 60.397 88.6735 60.1941C88.6735 58.3388 87.4103 56.9474 85.6244 56.9474ZM87.875 59.8317H83.3012C83.4174 58.6432 84.3466 57.6721 85.6244 57.6721C86.8731 57.6721 87.7588 58.6142 87.875 59.8317Z" fill="#FFC20E"/>
<path d="M112.086 56.9474C110.184 56.9474 108.761 58.3678 108.761 60.2665C108.761 62.1653 110.184 63.5857 112.086 63.5857C113.276 63.5857 114.206 63.0204 114.641 62.3682C114.699 62.2812 114.728 62.2087 114.728 62.1073C114.728 61.8899 114.54 61.7449 114.307 61.7449C114.162 61.7449 114.075 61.8319 114.002 61.9189C113.48 62.5421 112.942 62.832 112.086 62.832C110.663 62.832 109.632 61.6869 109.632 60.2665C109.632 58.8461 110.663 57.7011 112.086 57.7011C112.942 57.7011 113.48 57.9909 114.002 58.6142C114.075 58.7012 114.162 58.7881 114.307 58.7881C114.54 58.7881 114.728 58.6432 114.728 58.4258C114.728 58.3243 114.699 58.2518 114.641 58.1649C114.206 57.5126 113.276 56.9474 112.086 56.9474Z" fill="white"/>
<path d="M122.465 59.8607C122.465 58.1794 121.434 56.9474 119.75 56.9474C118.69 56.9474 117.848 57.3967 117.383 58.1939V54.0775C117.383 53.8311 117.194 53.6427 116.948 53.6427C116.701 53.6427 116.512 53.8311 116.512 54.0775V63.0929C116.512 63.3393 116.701 63.5277 116.948 63.5277C117.194 63.5277 117.383 63.3393 117.383 63.0929V60.0636C117.383 58.6432 118.327 57.7445 119.561 57.7445C120.911 57.7445 121.594 58.5707 121.594 59.8752V63.0929C121.594 63.3393 121.783 63.5277 122.029 63.5277C122.276 63.5277 122.465 63.3393 122.465 63.0929V59.8607Z" fill="white"/>
<path d="M129.964 63.0929V59.6723C129.964 57.9185 128.889 56.9474 127.06 56.9474C126.087 56.9474 125.404 57.1358 124.838 57.4257C124.722 57.4836 124.62 57.5996 124.62 57.7445C124.62 57.9764 124.765 58.1069 124.998 58.1069C125.085 58.1069 125.157 58.0779 125.201 58.0634C125.767 57.8315 126.29 57.6866 126.987 57.6866C128.41 57.6866 129.092 58.3098 129.092 59.6868V60.5419C128.758 60.1506 128.003 59.7592 127.06 59.7592C125.448 59.7592 124.388 60.5274 124.388 61.6869C124.388 62.774 125.375 63.5857 126.929 63.5857C127.815 63.5857 128.599 63.3248 129.092 62.774V63.0929C129.092 63.3248 129.252 63.5277 129.528 63.5277C129.804 63.5277 129.964 63.3248 129.964 63.0929ZM129.092 61.6869C129.092 62.4551 128.12 62.9479 127.06 62.9479C125.985 62.9479 125.259 62.4696 125.259 61.6869C125.259 60.9188 125.985 60.4115 127.118 60.4115C128.105 60.4115 129.092 60.8898 129.092 61.6869Z" fill="white"/>
<path d="M138.162 59.8607C138.162 58.1794 137.131 56.9474 135.447 56.9474C134.387 56.9474 133.544 57.3967 133.08 58.1939V57.4402C133.08 57.1938 132.891 57.0053 132.644 57.0053C132.397 57.0053 132.209 57.1938 132.209 57.4402V63.0929C132.209 63.3393 132.397 63.5277 132.644 63.5277C132.891 63.5277 133.08 63.3393 133.08 63.0929V60.0636C133.08 58.6432 134.024 57.7445 135.258 57.7445C136.608 57.7445 137.291 58.5707 137.291 59.8752V63.0929C137.291 63.3393 137.479 63.5277 137.726 63.5277C137.973 63.5277 138.162 63.3393 138.162 63.0929V59.8607Z" fill="white"/>
<path d="M145.791 62.0493V62.9624C145.791 64.4408 145.123 65.5279 143.323 65.5279C142.48 65.5279 141.783 65.325 141.188 65.0061C141.072 64.9481 140.941 64.8902 140.811 64.8902C140.622 64.8902 140.477 65.0061 140.477 65.209C140.477 65.3974 140.607 65.5134 140.738 65.5859C141.304 65.9337 142.19 66.2381 143.323 66.2381C145.646 66.2381 146.662 64.8612 146.662 62.9045V57.4402C146.662 57.1938 146.473 57.0053 146.227 57.0053C145.98 57.0053 145.791 57.1938 145.791 57.4402V58.2808C145.413 57.6576 144.528 56.9474 143.235 56.9474C141.464 56.9474 140.012 58.2084 140.012 60.1651C140.012 62.1218 141.464 63.3828 143.235 63.3828C144.266 63.3828 145.283 62.8755 145.791 62.0493ZM140.869 60.1651C140.869 58.6432 141.871 57.6576 143.323 57.6576C144.716 57.6576 145.791 58.8026 145.791 60.1651C145.791 61.5275 144.716 62.6725 143.323 62.6725C141.871 62.6725 140.869 61.6869 140.869 60.1651Z" fill="white"/>
<path d="M151.814 56.9474C149.898 56.9474 148.576 58.4982 148.576 60.2665C148.576 62.0203 149.825 63.5857 151.902 63.5857C153.049 63.5857 153.992 63.0494 154.486 62.3682C154.544 62.2812 154.573 62.2087 154.573 62.1073C154.573 61.9189 154.442 61.7449 154.21 61.7449C154.05 61.7449 153.949 61.8464 153.876 61.9333C153.353 62.5566 152.715 62.8465 151.902 62.8465C150.377 62.8465 149.506 61.7159 149.462 60.5564H154.501C154.689 60.5564 154.864 60.397 154.864 60.1941C154.864 58.3388 153.6 56.9474 151.814 56.9474ZM154.065 59.8317H149.491C149.607 58.6432 150.537 57.6721 151.814 57.6721C153.063 57.6721 153.949 58.6142 154.065 59.8317Z" fill="white"/>
</svg>
